<svg width="126" height="126" viewBox="0 0 126 126" fill="none" xmlns="http://www.w3.org/2000/svg">
<path d="M107.625 13.125H18.375L26.25 102.375L63 112.875L99.75 102.375L107.625 13.125Z" fill="#0277BD"/>
<path d="M63 21V104.738L92.4 96.3375L98.9625 21H63Z" fill="#039BE5"/>
<path d="M86.8875 34.125H63V44.625H75.8625L75.075 55.125H63V65.625H74.55L73.7625 77.4375L63 81.1125V92.1375L83.7375 85.3125L85.575 55.125L86.8875 34.125Z" fill="white"/>
<path d="M63 34.125V44.625H39.6375L38.85 34.125H63ZM50.925 55.125L51.45 65.625H63V55.125H50.925ZM51.975 70.875H41.475L42.2625 85.3125L63 92.1375V81.1125L52.2375 77.4375L51.975 70.875Z" fill="#EEEEEE"/>
</svg>
