<svg width="133" height="68" viewBox="0 0 133 68" fill="none" xmlns="http://www.w3.org/2000/svg">
<path d="M62.0312 68H6.4375C5.5625 68 4.75 67.8438 4 67.5312C3.25 67.2188 2.59375 66.7969 2.03125 66.2656C1.5 65.7031 1.07812 65.0469 0.765625 64.2969C0.453125 63.5469 0.296875 62.7344 0.296875 61.8594V0.78125H12.4844V55.8125H62.0312V68ZM126.578 40.5312H88.0469V28.25H126.578V40.5312ZM132.016 12.9688H83.1719V68H70.9844V6.92188C70.9844 6.07812 71.1406 5.28125 71.4531 4.53125C71.7656 3.78125 72.1875 3.125 72.7188 2.5625C73.2812 2 73.9375 1.5625 74.6875 1.25C75.4375 0.9375 76.25 0.78125 77.125 0.78125H132.016V12.9688Z" fill="white"/>
</svg>
