<svg width="126" height="126" viewBox="0 0 126 126" fill="none" xmlns="http://www.w3.org/2000/svg">
<g clip-path="url(#clip0_6_113)">
<path d="M123.347 56.7L69.3 2.65263C67.6421 0.994737 65.3211 0 63 0C60.6789 0 58.3579 0.994737 56.7 2.65263L45.0947 14.2579L58.6895 27.8526C60.0158 27.1895 61.3421 26.8579 63 26.8579C68.6368 26.8579 72.9474 31.1684 72.9474 36.8053C72.9474 38.4632 72.6158 39.7895 71.9526 41.1158L85.2158 54.3789C86.5421 53.7158 87.8684 53.3842 89.5263 53.3842C95.1632 53.3842 99.4737 57.6947 99.4737 63.3316C99.4737 68.9684 95.1632 73.2789 89.5263 73.2789C83.8895 73.2789 79.5789 68.9684 79.5789 63.3316C79.5789 61.6737 79.9105 60.3474 80.5737 59.0211L67.3105 45.7579C66.9789 45.7579 66.6474 46.0895 66.3158 46.0895V80.5737C70.2947 81.9 72.9474 85.5474 72.9474 89.8579C72.9474 95.4947 68.6368 99.8053 63 99.8053C57.3632 99.8053 53.0526 95.4947 53.0526 89.8579C53.0526 85.5474 55.7053 81.9 59.6842 80.5737V45.7579C55.7053 44.4316 53.0526 40.7842 53.0526 36.4737C53.0526 34.8158 53.3842 33.4895 54.0474 32.1632L40.4526 18.5684L2.65263 56.7C0.994737 58.3579 0 60.6789 0 63C0 65.3211 0.994737 67.6421 2.65263 69.3L56.7 123.347C58.3579 125.005 60.6789 126 63 126C65.3211 126 67.6421 125.005 69.3 123.347L123.347 69.3C125.005 67.6421 126 65.3211 126 63C126 60.6789 125.005 58.3579 123.347 56.7Z" fill="#F4511E"/>
</g>
<defs>
<clipPath id="clip0_6_113">
<rect width="126" height="126" fill="white"/>
</clipPath>
</defs>
</svg>
