<svg width="126" height="126" viewBox="0 0 126 126" fill="none" xmlns="http://www.w3.org/2000/svg">
<path d="M107.625 13.125H18.375L26.25 102.375L63 112.875L99.75 102.375L107.625 13.125Z" fill="#E65100"/>
<path d="M63 21V104.738L92.4 96.3375L98.9625 21H63Z" fill="#FF6D00"/>
<path d="M63 65.625V55.125H85.575L83.7375 85.3125L63 92.1375V81.1125L73.7625 77.4375L74.55 65.625H63ZM86.3625 44.625L87.15 34.125H63V44.625H86.3625Z" fill="white"/>
<path d="M63 81.1125V92.1375L42.2625 85.3125L41.2125 70.875H51.7125L52.2375 77.4375L63 81.1125ZM50.1375 44.625H63V34.125H39.1125L40.95 65.625H63V55.125H50.925L50.1375 44.625Z" fill="#EEEEEE"/>
</svg>
