<svg width="126" height="126" viewBox="0 0 126 126" fill="none" xmlns="http://www.w3.org/2000/svg">
<path d="M25.75 110.25C20.2272 110.25 15.75 105.773 15.75 100.25V25.75C15.75 20.2272 20.2272 15.75 25.75 15.75H100.25C105.773 15.75 110.25 20.2272 110.25 25.75V100.25C110.25 105.773 105.773 110.25 100.25 110.25H25.75Z" fill="#FFD600"/>
<path d="M77.5373 86.4859C79.3538 89.4364 81.3278 92.2635 85.5094 92.2635C89.0216 92.2635 90.8644 90.5179 90.8644 88.1029C90.8644 85.2127 88.9586 84.1864 85.0946 82.5037L82.9763 81.6008C76.8626 79.0073 72.7965 75.7575 72.7965 68.8931C72.7965 62.5669 77.6396 57.7526 85.2075 57.7526C90.5966 57.7526 94.4685 59.619 97.2615 64.5067L90.6623 68.7251C89.2106 66.1316 87.6409 65.1105 85.2075 65.1105C82.7243 65.1105 81.1519 66.6776 81.1519 68.7251C81.1519 71.2556 82.7269 72.2794 86.3625 73.8465L88.4809 74.7495C95.6865 77.8181 99.75 80.9524 99.75 87.9979C99.75 95.5894 93.7545 99.75 85.7063 99.75C77.8339 99.75 73.3635 95.7994 70.875 90.909L77.5373 86.4859ZM47.124 86.7011C48.4523 89.0794 50.4709 90.909 53.3741 90.909C56.1514 90.909 57.75 89.8118 57.75 85.5461V57.75H66.4991V86.8901C66.4991 95.7285 61.3725 99.75 53.886 99.75C47.1214 99.75 42.2389 95.1667 40.2491 90.909L47.124 86.7011Z" fill="#000001"/>
</svg>
