<svg width="129" height="132" viewBox="0 0 129 132" fill="none" xmlns="http://www.w3.org/2000/svg">
<path d="M115.27 0H14.5798C6.99948 0 0.849396 6.33482 0.849396 14.1429V117.857C0.849396 125.665 6.99948 132 14.5798 132H115.27C122.85 132 129 125.665 129 117.857V14.1429C129 6.33482 122.85 0 115.27 0ZM70.5885 102.948C70.5885 115.795 63.2656 121.658 52.5959 121.658C42.956 121.658 37.378 116.531 34.5175 110.314L44.3291 104.215C46.217 107.663 47.9333 110.579 52.081 110.579C56.0285 110.579 58.5458 108.988 58.5458 102.771V60.608H70.5885V102.948ZM99.0791 121.658C87.8945 121.658 80.6575 116.178 77.1391 108.988L86.9506 103.154C89.525 107.486 92.9004 110.697 98.8217 110.697C103.799 110.697 107.003 108.134 107.003 104.569C107.003 100.326 103.742 98.8232 98.221 96.3187L95.2174 94.9929C86.5215 91.192 80.7719 86.3893 80.7719 76.283C80.7719 66.9723 87.6657 59.9009 98.3926 59.9009C106.059 59.9009 111.551 62.6411 115.498 69.8304L106.116 76.0179C104.056 72.217 101.825 70.7143 98.364 70.7143C94.8456 70.7143 92.6144 73.0125 92.6144 76.0179C92.6144 79.7304 94.8456 81.233 100.023 83.5607L103.027 84.8866C113.267 89.3947 119.017 94.0205 119.017 104.392C119.017 115.529 110.493 121.658 99.0791 121.658Z" fill="white"/>
</svg>
