<svg width="479" height="371" viewBox="0 0 479 371" fill="none" xmlns="http://www.w3.org/2000/svg">
<g filter="url(#filter0_f_50_2)">
<path d="M73.5842 187.538L77.1249 204.412C77.4507 205.964 76.4554 207.488 74.9028 207.814L50.5294 212.929C48.9768 213.254 47.4528 212.259 47.127 210.706L43.5862 193.832C43.2604 192.28 44.2558 190.756 45.8084 190.43L50.9643 189.348L51.2805 187.269C51.4607 186.088 52.357 185.141 53.5288 184.895L60.8818 183.352C62.0536 183.106 63.2548 183.613 63.8948 184.622L65.0258 186.398L70.1817 185.316C71.7344 184.99 73.2584 185.985 73.5842 187.538ZM67.3863 197.647C66.5725 193.768 62.7589 191.277 58.8803 192.091C55.0016 192.905 52.5109 196.719 53.3248 200.597C54.1387 204.476 57.9523 206.967 61.8309 206.153C65.7095 205.339 68.2002 201.525 67.3863 197.647ZM65.5115 198.04C66.1078 200.882 64.2791 203.682 61.4375 204.278C58.5959 204.874 55.796 203.046 55.1997 200.204C54.6034 197.362 56.4321 194.562 59.2737 193.966C62.1153 193.37 64.9152 195.199 65.5115 198.04Z" fill="url(#paint0_linear_50_2)"/>
</g>
<g filter="url(#filter1_f_50_2)">
<path d="M424.876 145.384L421.721 144.385C421.482 144.309 421.223 144.332 421 144.449C420.777 144.565 420.609 144.766 420.533 145.006L419.671 147.726L416.967 146.869L417.828 144.15C417.905 143.909 417.883 143.649 417.767 143.425C417.652 143.201 417.453 143.033 417.214 142.958L412.707 141.53C412.468 141.454 412.208 141.477 411.985 141.594C411.762 141.71 411.594 141.911 411.518 142.151L410.657 144.871L407.958 144.016L408.82 141.297C408.896 141.056 408.874 140.795 408.759 140.572C408.643 140.348 408.444 140.18 408.205 140.104L405.045 139.104C404.805 139.028 404.546 139.051 404.323 139.167C404.1 139.284 403.932 139.484 403.856 139.725L400.698 149.697L403.729 152.652C402.862 155.391 401.938 158.008 400.114 161.483L416.026 166.522C416.534 162.631 417.296 159.924 418.152 157.22L422.332 156.549L425.491 146.576C425.567 146.336 425.545 146.075 425.43 145.852C425.314 145.628 425.115 145.46 424.876 145.384ZM411.595 159.134L407.989 157.992L409.138 154.365C409.29 153.884 409.626 153.483 410.072 153.25C410.518 153.017 411.037 152.972 411.515 153.123C411.993 153.274 412.391 153.611 412.622 154.058C412.852 154.505 412.896 155.026 412.744 155.507L411.595 159.134ZM417.411 168.956L397.58 162.675C397.34 162.599 397.081 162.622 396.858 162.739C396.635 162.855 396.467 163.056 396.391 163.296L395.817 165.109C395.741 165.35 395.763 165.611 395.878 165.834C395.993 166.058 396.192 166.226 396.431 166.301L416.263 172.582C416.502 172.658 416.762 172.635 416.984 172.518C417.207 172.402 417.375 172.201 417.451 171.961L418.026 170.148C418.102 169.907 418.08 169.647 417.965 169.423C417.85 169.2 417.65 169.031 417.411 168.956Z" fill="url(#paint1_linear_50_2)"/>
</g>
<g filter="url(#filter2_f_50_2)">
<path d="M232.885 67.5468L209.434 55.9921C208.716 55.6385 207.89 55.5786 207.138 55.8257C206.385 56.0727 205.768 56.6065 205.422 57.3095C205.075 58.0125 205.028 58.8272 205.291 59.5743C205.553 60.3214 206.104 60.9398 206.821 61.2934L230.273 72.8482C230.99 73.2018 231.816 73.2616 232.569 73.0146C233.321 72.7675 233.938 72.2338 234.285 71.5308C234.631 70.8277 234.678 70.0131 234.416 69.2659C234.153 68.5188 233.602 67.9004 232.885 67.5468ZM230.304 75.0597L205.049 62.6161C204.81 62.4983 204.534 62.4783 204.284 62.5607C204.033 62.643 203.827 62.8209 203.711 63.0553L203.276 63.9388C202.814 64.8762 202.751 65.9624 203.102 66.9586C203.452 67.9548 204.186 68.7793 205.143 69.2508L224.986 79.0279C225.943 79.4993 227.044 79.5791 228.047 79.2497C229.05 78.9203 229.873 78.2086 230.335 77.2713L230.771 76.3877C230.886 76.1534 230.902 75.8818 230.814 75.6328C230.727 75.3837 230.543 75.1776 230.304 75.0597ZM210.904 54.5205L233.156 65.4842C235.104 66.4444 237.429 64.577 237.183 62.261C236.684 57.5599 233.089 52.2813 227.254 49.3996C221.414 46.5292 215.037 46.894 211.006 49.3625C209.019 50.578 208.955 53.5603 210.904 54.5205ZM232.293 57.3727C232.471 57.4606 232.62 57.5983 232.721 57.7685C232.821 57.9387 232.869 58.1336 232.858 58.3287C232.846 58.5238 232.777 58.7103 232.657 58.8645C232.538 59.0188 232.375 59.1339 232.188 59.1953C232.001 59.2567 231.798 59.2617 231.607 59.2095C231.415 59.1574 231.242 59.0506 231.11 58.9025C230.978 58.7544 230.893 58.5718 230.866 58.3776C230.838 58.1835 230.87 57.9866 230.956 57.8118C231.071 57.5775 231.277 57.3996 231.528 57.3172C231.778 57.2349 232.054 57.2548 232.293 57.3727ZM225.948 52.0503C226.126 52.1382 226.275 52.2759 226.376 52.4461C226.476 52.6162 226.524 52.8112 226.512 53.0063C226.501 53.2014 226.432 53.3878 226.312 53.5421C226.193 53.6963 226.03 53.8114 225.843 53.8728C225.656 53.9343 225.453 53.9392 225.262 53.8871C225.07 53.835 224.897 53.7281 224.765 53.5801C224.633 53.432 224.548 53.2493 224.521 53.0552C224.493 52.861 224.525 52.6642 224.611 52.4894C224.726 52.2551 224.932 52.0772 225.183 51.9948C225.433 51.9124 225.709 51.9324 225.948 52.0503ZM217.861 50.2621C218.04 50.35 218.189 50.4877 218.289 50.6579C218.39 50.828 218.437 51.023 218.426 51.2181C218.415 51.4132 218.345 51.5996 218.226 51.7539C218.107 51.9081 217.943 52.0232 217.756 52.0846C217.569 52.1461 217.367 52.151 217.175 52.0989C216.983 52.0468 216.811 51.9399 216.679 51.7919C216.547 51.6438 216.462 51.4611 216.434 51.267C216.407 51.0729 216.438 50.876 216.524 50.7012C216.64 50.4669 216.845 50.289 217.096 50.2066C217.347 50.1242 217.622 50.1442 217.861 50.2621Z" fill="url(#paint2_linear_50_2)"/>
</g>
<g filter="url(#filter3_f_50_2)">
<path d="M288.75 309.658C279.516 308.22 270.865 314.54 269.427 323.774C267.99 333.009 274.31 341.66 283.544 343.097C292.778 344.535 301.429 338.215 302.867 328.98C304.305 319.746 297.985 311.095 288.75 309.658ZM284.804 335.007C283.612 334.822 282.797 333.705 282.982 332.514C283.168 331.322 284.284 330.507 285.475 330.692C286.667 330.878 287.482 331.994 287.297 333.186C287.111 334.377 285.995 335.193 284.804 335.007ZM286.147 326.377C282.573 325.821 279.224 328.267 278.667 331.842C278.111 335.417 280.557 338.765 284.132 339.322C276.983 338.209 272.09 331.511 273.203 324.362C274.316 317.213 281.013 312.32 288.162 313.433C291.737 313.989 294.183 317.338 293.627 320.913C293.07 324.487 289.722 326.934 286.147 326.377ZM287.491 317.748C286.299 317.562 285.183 318.378 284.997 319.569C284.812 320.761 285.628 321.877 286.819 322.063C288.01 322.248 289.127 321.432 289.312 320.241C289.498 319.05 288.682 317.933 287.491 317.748Z" fill="url(#paint3_linear_50_2)"/>
</g>
<path d="M340.2 72.4416L123.896 107.364C111.954 109.292 103.826 120.526 105.75 132.444L131.309 290.75C133.233 302.668 144.483 310.773 156.425 308.845L372.729 273.923C384.671 271.995 392.799 260.761 390.875 248.843L365.316 90.5366C363.392 78.6187 352.142 70.5136 340.2 72.4416ZM188.547 141.226C204.455 138.658 219.472 149.477 222.035 165.353C224.598 181.228 213.749 196.224 197.841 198.792C181.934 201.36 166.917 190.541 164.354 174.665C161.791 158.79 172.64 143.794 188.547 141.226ZM256.212 239.574C256.982 244.342 253.1 248.937 247.512 249.839L166.759 262.877C161.171 263.779 156.04 260.639 155.27 255.872L153.876 247.237C151.567 232.935 163.258 219.142 179.976 216.443L182.23 216.079C188.143 217.478 194.392 217.807 200.746 216.781C207.1 215.755 212.973 213.469 218.1 210.288L220.353 209.924C237.072 207.225 252.509 216.638 254.818 230.94L256.212 239.574ZM353.321 199.531C353.64 201.51 352.279 203.391 350.297 203.711L285.405 214.188C283.422 214.508 281.539 213.151 281.219 211.172L280.058 203.976C279.738 201.998 281.099 200.117 283.082 199.796L347.973 189.32C349.956 189 351.84 190.357 352.159 192.336L353.321 199.531ZM348.674 170.748C348.993 172.727 347.632 174.608 345.65 174.928L280.758 185.405C278.775 185.725 276.892 184.368 276.572 182.389L275.411 175.193C275.091 173.215 276.452 171.334 278.435 171.013L343.326 160.537C345.309 160.217 347.193 161.574 347.512 163.553L348.674 170.748ZM344.027 141.965C344.346 143.944 342.985 145.825 341.003 146.145L276.111 156.622C274.128 156.942 272.245 155.585 271.925 153.606L270.763 146.41C270.444 144.432 271.805 142.551 273.788 142.23L338.679 131.754C340.662 131.434 342.546 132.791 342.865 134.77L344.027 141.965Z" fill="url(#paint4_linear_50_2)"/>
<path d="M423.986 42.9515C420.34 41.9744 404.588 38.1368 390.449 50.5939L394.606 35.0791C397.167 25.5229 391.468 15.6653 381.902 13.102C378.709 12.2464 375.426 14.1393 374.572 17.3289C373.717 20.5185 375.613 23.799 378.806 24.6546C381.994 25.5087 383.894 28.7961 383.041 31.9803L370.659 78.1907C368.952 84.5627 372.75 91.1329 379.128 92.8421L410.932 101.364C412.529 101.792 414.169 100.846 414.597 99.2503L415.371 96.3622C416.225 93.1726 414.329 89.892 411.136 89.0365L405.354 87.4871L433.127 76.3557L426.162 102.349C425.734 103.945 426.682 105.584 428.279 106.012L434.061 107.561C435.659 107.989 437.299 107.044 437.726 105.448L447.697 68.2377C445.708 68.2214 443.702 68.0457 441.695 67.5078C430.526 64.515 423.312 54.0599 423.986 42.9515ZM457.073 33.2441L445.509 30.1453L437.039 15.4939L430.539 39.7544C427.974 49.325 433.662 59.1643 443.243 61.7315C452.823 64.2987 462.669 58.6214 465.233 49.0508L471.734 24.7903L457.073 33.2441ZM440.194 44.1987C438.596 43.7707 437.649 42.1316 438.076 40.5359C438.504 38.9402 440.144 37.9944 441.741 38.4224C443.339 38.8505 444.286 40.4896 443.859 42.0853C443.431 43.681 441.791 44.6268 440.194 44.1987ZM454.65 48.0722C453.052 47.6442 452.105 46.0051 452.532 44.4094C452.96 42.8137 454.6 41.8679 456.197 42.2959C457.795 42.724 458.742 44.3631 458.315 45.9588C457.887 47.5545 456.247 48.5003 454.65 48.0722Z" fill="url(#paint5_linear_50_2)"/>
<path d="M69.6695 108.369L68.2669 109.78C67.7517 110.304 66.937 110.361 66.3382 109.938C65.1002 109.056 64.0382 107.985 63.1777 106.767C62.7603 106.18 62.8297 105.361 63.3418 104.849L64.7444 103.438C64.1901 102.289 63.8512 101.036 63.7471 99.7463L61.8239 99.2309C61.1245 99.0436 60.6528 98.3798 60.7236 97.649C60.8654 96.1874 61.2474 94.7151 61.8827 93.3233C62.1867 92.6549 62.9303 92.3043 63.6297 92.4917L65.5529 93.007C66.288 91.9419 67.208 91.0262 68.2622 90.3089L67.7532 88.3855C67.566 87.6855 67.9035 86.9386 68.57 86.6424C69.9242 86.018 71.3915 85.6238 72.8927 85.4762C73.6227 85.4094 74.2999 85.8658 74.484 86.5775L74.9931 88.5009C76.2763 88.6073 77.5235 88.9415 78.688 89.4909L80.0906 88.0797C80.6058 87.5555 81.4205 87.4988 82.0193 87.9217C83.2573 88.8033 84.3193 89.8751 85.1798 91.0929C85.5972 91.6797 85.5278 92.4983 85.0157 93.0109L83.6131 94.4222C84.1674 95.5704 84.5063 96.8234 84.6104 98.1135L86.5336 98.6288C87.233 98.8162 87.7047 99.48 87.6339 100.211C87.4921 101.672 87.1101 103.145 86.4748 104.536C86.1708 105.205 85.4272 105.555 84.7278 105.368L82.8046 104.853C82.0694 105.918 81.1495 106.834 80.0953 107.551L80.6043 109.474C80.7915 110.174 80.454 110.921 79.7875 111.217C78.4333 111.842 76.966 112.236 75.4648 112.384C74.7348 112.45 74.0575 111.994 73.8734 111.282L73.3644 109.359C72.0928 109.256 70.834 108.918 69.6695 108.369ZM70.2826 101.185C73.8454 105.839 80.3339 102.091 78.0865 96.6778C74.5269 92.0125 68.0353 95.7716 70.2826 101.185ZM52.0352 115.528L55.4384 118.539C56.4344 119.531 56.563 121.103 55.7531 122.26C53.9597 124.804 51.2263 126.846 48.732 128.602C47.5914 129.408 46.0307 129.265 45.0347 128.273L42.1676 125.406C39.8747 126.503 37.3661 127.193 34.7781 127.387L33.7284 131.305C33.366 132.657 32.0862 133.564 30.6949 133.441C27.6963 133.163 24.6828 132.38 21.848 131.071C20.5701 130.478 19.8886 129.059 20.2541 127.694L21.3039 123.777C19.1626 122.303 17.332 120.463 15.8951 118.366L11.9815 119.404C10.6347 119.768 9.19979 119.109 8.61531 117.84C7.33313 115.072 6.03353 111.95 5.74908 108.862C5.62337 107.466 6.52051 106.169 7.88209 105.797L12.2884 104.878C12.4868 102.319 13.1584 99.8125 14.2691 97.4858L10.9157 94.4753C9.91961 93.4836 9.77937 91.9089 10.5978 90.7661C12.3912 88.2224 15.078 86.1681 17.5723 84.4121C18.7129 83.6055 20.2736 83.7487 21.2697 84.7404L24.1367 87.6081C26.4296 86.5104 28.9382 85.8205 31.5262 85.6266L32.579 81.6974C32.9383 80.3565 34.2065 79.4467 35.5978 79.5695C38.5963 79.8481 41.6215 80.6337 44.4594 81.9315C45.7374 82.5238 46.4188 83.9436 46.0533 85.3078L45.0036 89.2254C47.1448 90.6989 48.9754 92.5391 50.4123 94.6361L54.3291 93.5862C55.6759 93.2222 57.1108 93.8816 57.6952 95.1505C58.9774 97.9184 60.2654 101.038 60.5467 104.137C60.6724 105.533 59.8335 106.845 58.472 107.218L54.019 108.124C53.8176 110.695 53.1459 113.201 52.0352 115.528ZM37.6686 114.315C46.9745 107.186 39.4751 94.1924 28.6505 98.69C19.3446 105.819 26.844 118.813 37.6686 114.315ZM60.3313 143.219L58.9288 144.631C58.4135 145.155 57.5988 145.211 57 144.789C55.7621 143.907 54.7001 142.835 53.8396 141.617C53.4221 141.031 53.4915 140.212 54.0037 139.699L55.4062 138.288C54.8519 137.14 54.513 135.887 54.409 134.597L52.4857 134.081C51.7864 133.894 51.3146 133.23 51.3855 132.499C51.5273 131.038 51.9093 129.566 52.5446 128.174C52.8486 127.505 53.5921 127.155 54.2915 127.342L56.2147 127.858C56.9499 126.792 57.8699 125.877 58.924 125.159L58.415 123.236C58.2278 122.536 58.5653 121.789 59.2319 121.493C60.586 120.868 62.0533 120.474 63.5545 120.327C64.2845 120.26 64.9618 120.716 65.1459 121.428L65.6549 123.351C66.9381 123.458 68.1853 123.792 69.3498 124.341L70.7524 122.93C71.2677 122.406 72.0824 122.349 72.6812 122.772C73.9191 123.654 74.9811 124.726 75.8416 125.943C76.2591 126.53 76.1896 127.349 75.6775 127.861L74.2749 129.273C74.8293 130.421 75.1681 131.674 75.2722 132.964L77.1955 133.479C77.8948 133.667 78.3666 134.33 78.2957 135.061C78.1539 136.523 77.7719 137.995 77.1366 139.387C76.8326 140.055 76.089 140.406 75.3897 140.219L73.4664 139.703C72.7313 140.768 71.8113 141.684 70.7571 142.401L71.2662 144.325C71.4534 145.025 71.1158 145.772 70.4493 146.068C69.0952 146.692 67.6278 147.086 66.1266 147.234C65.3966 147.301 64.7194 146.844 64.5353 146.133L64.0263 144.209C62.7547 144.106 61.4958 143.769 60.3313 143.219ZM60.9476 136.024C64.5104 140.678 70.9989 136.93 68.7515 131.517C65.1887 126.863 58.7002 130.61 60.9476 136.024Z" fill="url(#paint6_linear_50_2)"/>
<path d="M56.9899 258.189L50.2782 262.064C49.6049 262.452 49.0148 262.97 48.5416 263.586C48.0684 264.203 47.7212 264.907 47.52 265.658C47.3188 266.409 47.2675 267.192 47.369 267.963C47.4705 268.733 47.7229 269.476 48.1116 270.149L54.1731 280.635C54.6785 281.513 55.3824 282.261 56.2283 282.819L62.1688 286.739L72.1421 304.014C69.995 305.767 68.1095 307.816 66.8032 310.261C63.8121 315.865 63.4387 322.189 66.431 327.371C67.6585 329.488 69.377 331.277 71.4415 332.589C74.4701 334.55 76.1706 338.301 75.5801 341.769C74.8512 346.112 75.4366 350.487 77.6638 354.316C83.6095 364.648 98.6517 367.106 111.214 359.849C123.776 352.592 129.145 338.341 123.201 328.025C120.999 324.18 117.504 321.489 113.36 319.94C110.076 318.724 107.666 315.372 107.48 311.772C107.374 309.328 106.683 306.944 105.465 304.822C102.472 299.641 96.8195 296.811 90.4838 296.595C87.7061 296.5 84.9852 297.108 82.3849 298.094L72.4142 280.824L71.9881 273.725C71.928 272.713 71.6322 271.73 71.1243 270.853L65.067 260.359C64.2829 259.001 62.9918 258.01 61.4774 257.603C59.963 257.196 58.3491 257.407 56.9899 258.189ZM98.8037 325.807C98.3492 327.503 97.402 329.027 96.0819 330.184C94.7618 331.342 93.128 332.082 91.3872 332.311C89.6464 332.541 87.8767 332.248 86.3019 331.472C84.7272 330.695 83.4181 329.469 82.5401 327.949C81.6622 326.428 81.2549 324.681 81.3698 322.929C81.4846 321.177 82.1164 319.498 83.1853 318.105C84.2542 316.712 85.7122 315.668 87.3748 315.103C89.0375 314.539 90.8302 314.48 92.5262 314.934C94.8005 315.544 96.7395 317.032 97.9168 319.071C99.094 321.11 99.413 323.533 98.8037 325.807Z" fill="url(#paint7_linear_50_2)"/>
<path d="M418.696 293.628L439.922 299.315C445.781 300.885 451.803 297.426 453.367 291.591L456.904 292.539C464.709 294.63 472.748 290.012 474.83 282.24C476.913 274.468 472.26 266.449 464.455 264.358L421.119 252.746C419.649 252.352 418.15 253.213 417.758 254.677L410.915 280.216C409.352 286.051 412.837 292.058 418.696 293.628ZM462.568 271.403C466.47 272.449 468.796 276.459 467.755 280.344C466.714 284.23 462.694 286.54 458.792 285.494L455.254 284.546L459.03 270.455L462.568 271.403ZM456.514 315.088L399.978 299.939C394.716 298.529 395.122 291.087 397.886 291.827L462.371 309.106C465.135 309.847 461.787 316.501 456.514 315.088Z" fill="url(#paint8_linear_50_2)"/>
<defs>
<filter id="filter0_f_50_2" x="41.5244" y="181.291" width="37.6623" height="33.6995" filterUnits="userSpaceOnUse" color-interpolation-filters="sRGB">
<feFlood flood-opacity="0" result="BackgroundImageFix"/>
<feBlend mode="normal" in="SourceGraphic" in2="BackgroundImageFix" result="shape"/>
<feGaussianBlur stdDeviation="1" result="effect1_foregroundBlur_50_2"/>
</filter>
<filter id="filter1_f_50_2" x="393.772" y="137.06" width="33.7632" height="37.5664" filterUnits="userSpaceOnUse" color-interpolation-filters="sRGB">
<feFlood flood-opacity="0" result="BackgroundImageFix"/>
<feBlend mode="normal" in="SourceGraphic" in2="BackgroundImageFix" result="shape"/>
<feGaussianBlur stdDeviation="1" result="effect1_foregroundBlur_50_2"/>
</filter>
<filter id="filter2_f_50_2" x="200.878" y="45.3771" width="38.3233" height="36.0727" filterUnits="userSpaceOnUse" color-interpolation-filters="sRGB">
<feFlood flood-opacity="0" result="BackgroundImageFix"/>
<feBlend mode="normal" in="SourceGraphic" in2="BackgroundImageFix" result="shape"/>
<feGaussianBlur stdDeviation="1" result="effect1_foregroundBlur_50_2"/>
</filter>
<filter id="filter3_f_50_2" x="267.223" y="307.454" width="37.8475" height="37.8475" filterUnits="userSpaceOnUse" color-interpolation-filters="sRGB">
<feFlood flood-opacity="0" result="BackgroundImageFix"/>
<feBlend mode="normal" in="SourceGraphic" in2="BackgroundImageFix" result="shape"/>
<feGaussianBlur stdDeviation="1" result="effect1_foregroundBlur_50_2"/>
</filter>
<linearGradient id="paint0_linear_50_2" x1="19.5258" y1="210.371" x2="96.7491" y2="167.777" gradientUnits="userSpaceOnUse">
<stop stop-color="#3CE000"/>
<stop offset="1" stop-color="#00AAE0"/>
</linearGradient>
<linearGradient id="paint1_linear_50_2" x1="326.121" y1="186.623" x2="484.245" y2="114.456" gradientUnits="userSpaceOnUse">
<stop stop-color="#3CE000"/>
<stop offset="0.84452" stop-color="#00AAE0"/>
</linearGradient>
<linearGradient id="paint2_linear_50_2" x1="274.169" y1="64.1399" x2="157.021" y2="85.7756" gradientUnits="userSpaceOnUse">
<stop stop-color="#00AAE0"/>
<stop offset="1" stop-color="#3CE000"/>
</linearGradient>
<linearGradient id="paint3_linear_50_2" x1="330.717" y1="307.054" x2="247.978" y2="326.36" gradientUnits="userSpaceOnUse">
<stop stop-color="#00AAE0"/>
<stop offset="1" stop-color="#3CE000"/>
</linearGradient>
<linearGradient id="paint4_linear_50_2" x1="341.557" y1="87.4215" x2="169.451" y2="261.604" gradientUnits="userSpaceOnUse">
<stop stop-color="#00AAE0"/>
<stop offset="1" stop-color="#42F500"/>
</linearGradient>
<linearGradient id="paint5_linear_50_2" x1="425.474" y1="12.3952" x2="402.258" y2="99.0397" gradientUnits="userSpaceOnUse">
<stop stop-color="#0277BD"/>
<stop offset="1" stop-color="#00AAE0"/>
</linearGradient>
<linearGradient id="paint6_linear_50_2" x1="7.0619" y1="67.7385" x2="78.6369" y2="134.505" gradientUnits="userSpaceOnUse">
<stop stop-color="#165200"/>
<stop offset="1" stop-color="#3CE000"/>
</linearGradient>
<linearGradient id="paint7_linear_50_2" x1="25.9611" y1="370.488" x2="111.458" y2="265.225" gradientUnits="userSpaceOnUse">
<stop stop-color="#165200"/>
<stop offset="1" stop-color="#3CE000"/>
</linearGradient>
<linearGradient id="paint8_linear_50_2" x1="443.226" y1="258.67" x2="364.273" y2="296.023" gradientUnits="userSpaceOnUse">
<stop stop-color="#00AAE0"/>
<stop offset="1" stop-color="#3CE000"/>
</linearGradient>
</defs>
</svg>
