<svg width="126" height="126" viewBox="0 0 126 126" fill="none" xmlns="http://www.w3.org/2000/svg">
<path d="M63.1234 13.1249C59.0415 13.1381 56.2118 13.4977 52.7914 14.0883C42.6904 15.8471 40.8503 19.5404 40.8503 26.3471V36.7499H64.4753V41.9999H39.9525H28.5338C21.6143 41.9999 15.5584 45.2602 13.6395 53.0748C11.4713 62.0444 11.3741 67.6619 13.6395 77.0279C15.3589 84.0131 19.1468 89.2499 26.0689 89.2499H35.6029V75.8519C35.6029 68.0662 42.6536 60.3749 50.7334 60.3749H69.7279C76.3508 60.3749 82.8529 55.4872 82.8529 48.8853V26.3471C82.8529 19.9447 78.2355 15.1567 71.7806 14.0831C71.9408 14.0673 67.1711 13.1092 63.1234 13.1249ZM50.0404 23.6249C52.1955 23.6249 53.9779 25.4021 53.9779 27.5677C53.9779 29.7543 52.1955 31.4999 50.0404 31.4999C47.8433 31.4999 46.1029 29.7569 46.1029 27.5677C46.1029 25.4099 47.8433 23.6249 50.0404 23.6249Z" fill="#0277BD"/>
<path d="M60.5797 112.875C64.6616 112.862 67.4914 112.502 70.9117 111.912C81.0127 110.153 82.8529 106.46 82.8529 99.6529V89.25H59.2279V84H83.7533H95.172C102.091 84 108.147 80.7397 110.066 72.9251C112.234 63.9555 112.332 58.338 110.066 48.972C108.344 41.9869 104.556 36.75 97.6343 36.75H88.1003V50.148C88.1003 57.9338 81.0495 65.625 72.9697 65.625H53.9753C47.3524 65.625 40.8503 70.5128 40.8503 77.1146V99.6529C40.8503 106.055 45.4676 110.843 51.9225 111.917C51.7624 111.933 56.532 112.891 60.5797 112.875ZM73.6654 102.375C71.5102 102.375 69.7279 100.598 69.7279 98.4323C69.7279 96.2456 71.5102 94.5 73.6654 94.5C75.8625 94.5 77.6029 96.243 77.6029 98.4323C77.6029 100.59 75.8599 102.375 73.6654 102.375Z" fill="#FFC107"/>
</svg>
