<svg width="126" height="126" viewBox="0 0 126 126" fill="none" xmlns="http://www.w3.org/2000/svg">
<path d="M63 91.035C27.0837 91.035 0 79.2855 0 63C0 46.7145 27.0837 34.65 63 34.65C98.9163 34.65 126 46.7145 126 63C126 79.2855 98.9163 91.035 63 91.035ZM63 43.8858C32.3536 43.8858 9.05625 54.1737 9.05625 63.1985C9.05625 72.2232 32.3536 82.1142 63 82.1142C93.6464 82.1142 116.944 71.8263 116.944 62.8016C116.944 53.7768 93.6464 43.8858 63 43.8858Z" fill="#4E7AB5"/>
<path d="M39.0663 119.7C36.1336 119.7 33.4561 119.02 31.1031 117.678C27.2601 115.482 24.5038 111.605 23.1273 106.457C19.5174 92.9691 25.3417 70.2891 37.9732 48.6738C52.794 23.332 72.472 6.30945 86.9368 6.30945C89.8663 6.30945 92.5438 6.98985 94.8969 8.33175C98.7336 10.521 101.493 14.3955 102.87 19.5394C106.483 33.0277 100.655 55.7109 88.0173 77.3262C73.2091 102.671 53.5342 119.7 39.0663 119.7ZM86.9368 15.7594C77.8396 15.7594 60.4485 28.9674 46.1317 53.4429C33.1443 75.6693 29.3359 94.1063 32.2591 104.013C33.0498 106.687 34.1649 108.543 35.7903 109.469C43.2274 113.715 63.5386 100.491 79.8619 72.5602C92.8557 50.3307 97.0609 32.2875 93.7408 21.987C92.8872 19.3378 91.8382 17.4667 90.216 16.5438C89.293 16.0146 88.2189 15.7594 86.9368 15.7594Z" fill="#4E7AB5"/>
<path d="M86.9368 119.691C72.4563 119.687 52.7814 102.665 37.9732 77.3263C25.3417 55.711 19.5174 33.0278 23.1273 19.5426C24.5038 14.3955 27.2601 10.5179 31.0999 8.3255C33.4561 6.98045 36.1336 6.30005 39.06 6.30005C53.5342 6.30005 73.206 23.3289 88.0173 48.6738C100.652 70.286 106.476 92.9692 102.866 106.461C101.487 111.605 98.7304 115.479 94.8969 117.668C92.5438 119.01 89.8632 119.691 86.9368 119.691ZM39.06 15.75C37.7779 15.75 36.7069 16.0083 35.784 16.5312C34.1617 17.4573 33.0309 19.3064 32.256 21.987C29.3328 32.0922 33.1411 50.3339 46.1286 72.5603C60.4327 97.0327 77.827 110.241 86.9337 110.241C88.2189 110.241 89.2899 109.982 90.2128 109.456C91.8319 108.536 92.9943 106.697 93.7345 104.013C96.4656 94.1031 92.8494 75.663 79.8588 53.4398C65.5546 28.9612 48.1635 15.75 39.06 15.75Z" fill="#4E7AB5"/>
<path d="M74.025 63C74.025 69.0952 69.0952 74.025 63 74.025C56.9047 74.025 51.975 69.0952 51.975 63C51.975 56.9047 56.9047 51.975 63 51.975C69.0952 51.975 74.025 56.9047 74.025 63Z" fill="#8BB7F0"/>
<path d="M63 75.6C56.0511 75.6 50.4 69.9489 50.4 63C50.4 56.0511 56.0511 50.4 63 50.4C69.9489 50.4 75.6 56.0511 75.6 63C75.6 69.9489 69.9489 75.6 63 75.6ZM63 53.55C57.7899 53.55 53.55 57.7899 53.55 63C53.55 68.2101 57.7899 72.45 63 72.45C68.2101 72.45 72.45 68.2101 72.45 63C72.45 57.7899 68.2101 53.55 63 53.55Z" fill="#4E7AB5"/>
<path d="M63 88.4142C29.4399 88.4142 3.15002 77.2506 3.15002 63C3.15002 48.7494 29.4399 37.5858 63 37.5858C96.5601 37.5858 122.85 48.7494 122.85 63C122.85 77.2506 96.5601 88.4142 63 88.4142ZM63 40.7358C32.2655 40.7358 6.30002 50.9324 6.30002 63C6.30002 75.0677 32.2655 85.2642 63 85.2642C93.7346 85.2642 119.7 75.0708 119.7 63C119.7 50.9292 93.7346 40.7358 63 40.7358Z" fill="#8BB7F0"/>
<path d="M39.0663 116.55C36.688 116.55 34.5366 116.008 32.6623 114.94C29.5249 113.148 27.342 110.02 26.167 105.642C22.7619 92.925 28.4634 71.1869 40.6885 50.2614C54.7438 26.2395 73.7604 9.45947 86.9369 9.45947C89.312 9.45947 91.4666 10.0013 93.3377 11.0691C96.4719 12.8583 98.6548 15.9831 99.8298 20.3553C103.235 33.0719 97.5334 54.81 85.302 75.7386C71.2561 99.7668 52.2459 116.55 39.0663 116.55ZM86.9369 12.6095C75.0173 12.6095 56.7126 29.1123 43.4133 51.8522C31.774 71.7759 26.0662 93.0636 29.2131 104.829C30.1612 108.366 31.8465 110.845 34.2279 112.206C35.617 112.997 37.2424 113.4 39.0631 113.4C50.9859 113.4 69.2874 96.894 82.5773 74.1479C94.2228 54.221 99.9338 32.9301 96.7806 21.1712C95.8356 17.64 94.1504 15.161 91.7721 13.8065C90.3829 13.0127 88.7576 12.6095 86.9369 12.6095Z" fill="#8BB7F0"/>
<path d="M86.9369 116.541C73.7478 116.537 54.7312 99.7605 40.6917 75.7386C28.4634 54.8131 22.765 33.075 26.1702 20.3584C27.342 15.9799 29.5249 12.852 32.6655 11.0596C34.5366 9.99175 36.688 9.44995 39.06 9.44995C52.2427 9.44995 71.2561 26.2332 85.2988 50.2614C97.5303 71.1837 103.229 92.9218 99.8203 105.645C98.6517 110.02 96.4687 113.145 93.3345 114.931C91.4634 115.999 89.312 116.541 86.9369 116.541ZM39.06 12.6C37.2424 12.6 35.6139 13.0032 34.2247 13.7938C31.8433 15.1546 30.1581 17.6337 29.2099 21.1711C26.0631 32.9332 31.7709 54.2241 43.4101 74.1478C56.7 96.8845 75.0078 113.387 86.9369 113.391C88.7575 113.391 90.3861 112.987 91.7752 112.194C94.1503 110.839 95.8356 108.36 96.7806 104.829C99.9306 93.0636 94.2228 71.7727 82.5804 51.8521C69.2874 29.1091 50.989 12.6 39.06 12.6Z" fill="#8BB7F0"/>
</svg>
