<svg width="147" height="132" viewBox="0 0 147 132" fill="none" xmlns="http://www.w3.org/2000/svg">
<path d="M119.405 42.7762C117.863 42.2458 116.321 41.745 114.779 41.2736C115.036 40.1835 115.265 39.0933 115.493 38.0032C119.005 20.4434 116.692 6.3308 108.898 1.67569C101.388 -2.77318 89.1396 1.85247 76.748 12.9894C75.5202 14.0795 74.321 15.2285 73.1789 16.3776C72.408 15.6116 71.6086 14.8455 70.8091 14.109C57.8179 2.20602 44.7982 -2.80264 37.0035 1.88193C29.5228 6.36026 27.2958 19.6479 30.4365 36.2649C30.7506 37.9148 31.0932 39.5353 31.4929 41.1852C29.6656 41.7155 27.8668 42.3048 26.1822 42.9235C10.9354 48.3741 0 56.9772 0 65.8749C0 75.0673 11.6492 84.2891 27.4956 89.8871C28.7805 90.329 30.0653 90.7709 31.3787 91.1539C30.9504 92.9217 30.5793 94.66 30.2366 96.4572C27.2387 112.809 29.5799 125.773 37.0606 130.221C44.7696 134.818 57.7323 130.104 70.3523 118.702C71.3516 117.788 72.3509 116.845 73.3503 115.844C74.6066 117.111 75.92 118.319 77.2333 119.497C89.4536 130.339 101.531 134.729 108.983 130.28C116.692 125.684 119.205 111.748 115.95 94.7779C115.693 93.4815 115.407 92.1557 115.093 90.8004C116.007 90.5352 116.892 90.2406 117.777 89.946C134.252 84.3186 146.187 75.2146 146.187 65.8749C146.187 56.9477 134.937 48.2857 119.405 42.7762ZM80.7738 17.7623C91.3952 8.21641 101.303 4.47465 105.814 7.15576C110.639 10.0136 112.495 21.563 109.469 36.7363C109.269 37.7381 109.069 38.7103 108.812 39.6826C102.473 38.2094 96.0492 37.1488 89.5964 36.5595C85.8846 31.0795 81.8302 25.8351 77.4332 20.9148C78.5467 19.8247 79.6317 18.7935 80.7738 17.7623ZM47.7391 81.1661C49.1952 83.7293 50.6799 86.2926 52.2503 88.7969C47.7962 88.2961 43.3706 87.5595 39.0021 86.5872C40.2584 82.3446 41.8288 77.9547 43.6561 73.4763C44.9695 76.069 46.3115 78.6323 47.7391 81.1661ZM39.0878 45.7224C43.1993 44.7796 47.5677 44.0136 52.1075 43.4244C50.5943 45.8698 49.1096 48.3741 47.7105 50.9079C46.3115 53.4122 44.941 55.9755 43.6561 58.5682C41.8573 54.1782 40.3441 49.8767 39.0878 45.7224ZM46.9111 66.0223C48.7955 61.9564 50.8512 57.9789 53.0212 54.0604C55.1911 50.1419 57.5324 46.3412 59.9879 42.5994C64.2707 42.2753 68.6392 42.0985 73.0933 42.0985C77.5474 42.0985 81.9444 42.2753 86.1987 42.5994C88.6256 46.3117 90.9383 50.1124 93.1368 54.0015C95.3354 57.8905 97.3911 61.868 99.3326 65.9044C97.4196 69.9703 95.3639 73.9772 93.1654 77.9252C90.9954 81.8437 88.6827 85.6444 86.2558 89.4156C82.0015 89.7397 77.576 89.8871 73.0933 89.8871C68.6106 89.8871 64.2707 89.7397 60.0736 89.4746C57.5895 85.7328 55.2483 81.9027 53.0497 77.9841C50.8512 74.0656 48.824 70.0881 46.9111 66.0223ZM98.4761 81.1072C99.9322 78.5144 101.303 75.8923 102.645 73.2406C104.472 77.5127 106.071 81.8437 107.47 86.2926C103.044 87.3238 98.5617 88.1193 94.0505 88.6496C95.5923 86.1748 97.0485 83.641 98.4761 81.1072ZM102.588 58.5682C101.246 55.9755 99.8751 53.3827 98.4475 50.849C97.0485 48.3446 95.5923 45.8698 94.0791 43.4244C98.6759 44.0136 103.073 44.8091 107.184 45.7814C105.871 50.1418 104.329 54.3845 102.588 58.5682ZM73.1504 25.4226C76.1484 28.7814 78.975 32.3169 81.6018 35.9703C75.9485 35.7051 70.2666 35.7051 64.6133 35.9703C67.4114 32.1696 70.2952 28.6341 73.1504 25.4226ZM40.03 7.36199C44.8267 4.47465 55.4767 8.59943 66.6976 18.8525C67.4114 19.5006 68.1252 20.2077 68.8676 20.9148C64.442 25.8351 60.3591 31.0795 56.6188 36.5595C50.166 37.1488 43.7703 38.18 37.4318 39.6237C37.0606 38.1211 36.7465 36.589 36.4324 35.0569C33.7485 20.797 35.5188 10.0431 40.03 7.36199ZM33.0347 85.0257C31.8356 84.6722 30.6649 84.2891 29.4943 83.8767C23.4127 81.9027 16.5031 78.7796 11.5065 74.6843C8.62272 72.6219 6.68118 69.4399 6.13869 65.8749C6.13869 60.4833 15.1611 53.589 28.1809 48.9044C29.8084 48.3152 31.4644 47.7848 33.1204 47.284C35.0619 53.6774 37.4032 59.9529 40.1157 66.0223C37.3747 72.18 35.0048 78.5439 33.0347 85.0257ZM66.3265 113.899C61.6154 118.348 56.1619 121.884 50.2231 124.299C47.0538 125.861 43.3991 126.008 40.1442 124.683C35.6044 121.972 33.72 111.572 36.2897 97.5768C36.6037 95.9269 36.9464 94.277 37.3461 92.6565C43.7418 94.0708 50.1945 95.043 56.733 95.5439C60.5018 101.053 64.6419 106.327 69.0675 111.277C68.1538 112.19 67.2401 113.074 66.3265 113.899ZM73.3217 106.74C70.4094 103.499 67.4971 99.9044 64.6704 96.0448C67.4114 96.1626 70.2381 96.2215 73.0933 96.2215C76.0342 96.2215 78.9179 96.1626 81.7731 96.0153C79.1463 99.7571 76.3197 103.322 73.3217 106.74ZM110.639 115.579C110.382 119.173 108.669 122.532 105.928 124.8C101.388 127.511 91.7092 123.975 81.2592 114.724C80.06 113.663 78.8608 112.514 77.6331 111.336C82.0015 106.357 86.0274 101.083 89.6821 95.5439C96.2205 94.9841 102.73 93.9529 109.155 92.4503C109.44 93.6583 109.697 94.8662 109.925 96.0448C111.325 102.409 111.553 109.038 110.639 115.579ZM115.836 83.9061C115.036 84.1713 114.237 84.4364 113.409 84.6721C111.41 78.2493 108.955 71.9737 106.128 65.8749C108.869 59.8646 111.182 53.6774 113.123 47.3429C114.608 47.7848 116.036 48.2562 117.406 48.7276C130.711 53.4417 140.048 60.4538 140.048 65.816C140.048 71.5907 130.083 79.0448 115.836 83.9061ZM73.0933 79.4867C80.317 79.4867 86.1701 73.4469 86.1701 65.9928C86.1701 58.5387 80.317 52.4989 73.0933 52.4989C65.8696 52.4989 60.0164 58.5387 60.0164 65.9928C60.0164 73.4469 65.8696 79.4867 73.0933 79.4867Z" fill="white"/>
</svg>
